
<svg viewBox="-3.52 -242.849 1045.531 982.178" xmlns="http://www.w3.org/2000/svg">
  <g id="SVGRepo_iconCarrier" transform="matrix(1, 0, 0, 1, 21.0968475341798, -262.00006103515625)">
    <path d="M 960 252.736 L 771.008 64 L 86.4 64 C 74.058 64.07 64.07 74.058 64 86.4 L 64 937.6 C 64 949.952 74.112 960 86.4 960 L 937.6 960 C 949.888 960 960 949.952 960 937.6 L 960 722.24 C 960 704.972 941.307 694.179 926.352 702.813 C 919.412 706.82 915.136 714.226 915.136 722.24 L 915.136 596.032 L 915.392 596.032 C 915.392 596.544 915.136 727.151 915.136 727.599 C 915.136 744.867 939.108 806.694 954.063 798.06 C 961.003 794.053 952.961 781.367 960 597.376 C 960.02 596.864 959.744 596.48 959.744 596.032 L 956.48 759.691 L 960 500.032 L 959.68 500.032 C 959.744 499.456 960 498.944 960 498.432 C 960 481.164 946.586 449.254 931.631 457.888 C 924.691 461.895 915.136 490.418 915.136 498.432 C 915.136 499.008 915.392 499.456 915.456 500.032 L 915.2 500.032 L 915.2 414.976 L 915.264 414.976 L 916.96 608.935 C 916.935 626.179 928.548 647.541 943.493 638.941 C 950.43 634.949 956.469 703.231 956.48 695.228 L 958.176 587.498 L 958.24 601.576 L 960 252.736 Z" fill=""></path>
    <path d="M108.8 915.2V108.8h643.648L915.2 271.296V915.2z" fill="#4A5FA0"></path>
    <path d="M241.984 64v203.584c0 12.288 10.112 22.4 22.4 22.4h483.2c12.288 0 22.4-10.112 22.4-22.4V64h-528z" fill=""></path>
    <path d="M286.784 108.8h438.4v136.384h-438.4z" fill="#B3B2B1"></path>
    <path d="M 769.984 960 L 759.426 636.341 C 759.321 616.95 751.075 615.771 735.202 601.623 L 266.08 606.902 C 246.699 614.011 243.75 636.317 243.68 648.659 L 241.92 960 L 769.984 960 Z" fill=""></path>
    <path d="M 281.505 639.447 L 721.664 639.447 L 725.184 915.2 L 286.784 915.2 L 281.505 639.447 Z" fill="#B3B2B1"></path>
    <path d="M548.032 136h145.984v81.984H548.032z" fill="#949494"></path>
    <path d="M 672.736 746.516 C 672.736 758.804 660.928 768.916 648.576 768.916 L 373.376 767.156 C 361.088 767.156 349.216 755.349 349.216 742.997 C 349.216 730.645 361.088 722.356 373.376 722.356 L 648.576 724.116 C 660.928 724.116 672.736 734.228 672.736 746.516 Z M 670.976 744.64 C 670.976 756.928 660.928 767.04 648.576 767.04 L 373.376 767.04 C 361.088 767.04 350.976 756.992 350.976 744.64 C 350.976 732.288 361.088 722.24 373.376 722.24 L 648.576 722.24 C 660.947 722.24 670.976 732.269 670.976 744.64 Z M 670.976 836.032 C 670.976 848.32 660.928 858.432 648.576 858.432 L 373.376 858.432 C 361.088 858.432 350.976 848.384 350.976 836.032 C 350.976 823.68 361.088 813.632 373.376 813.632 L 648.576 813.632 C 660.947 813.632 670.976 823.661 670.976 836.032 Z" fill=""></path>
    <path d="M168.576 858.368a16 16 0 0 1-32 0V169.024a16 16 0 0 1 32 0v689.344z" fill="#FFFFFF"></path>
  </g>
  <text style="white-space: pre; fill: rgb(51, 51, 51); font-family: sans-serif; font-size: 28px;" x="249.767" y="69.208" transform="matrix(1, 0, 0, 1, 1.1368683772161603e-13, 5.684341886080802e-14)"> </text>
  <text style="white-space: pre; font-size: 15px;" x="292.002" y="144.878" transform="matrix(23.293899536132812, 0, 0, 23.748512268066406, -6571.991210937501, -3117.510009765625)">ZPL
</text>
</svg>